<?xml version="1.0" encoding="utf-8"?>
<!-- Generator: Adobe Illustrator 22.1.0, SVG Export Plug-In . SVG Version: 6.00 Build 0)  -->
<svg version="1.1" id="_x31_0" xmlns="http://www.w3.org/2000/svg" xmlns:xlink="http://www.w3.org/1999/xlink" x="0px" y="0px"
	 viewBox="0 0 128 128" style="enable-background:new 0 0 128 128;" xml:space="preserve">
<style type="text/css">
	.st0{fill:#FFFFFF;}
	.st1{fill:#231815;}
	.st2{fill:#695E5B;}
	.st3{fill:#FF6230;}
</style>
<g>
	<rect class="st0" width="128" height="128"/>
	<path class="st1" d="M10.809,108.748c-0.378,0.379-0.594,0.906-0.594,1.447c0,0.534,0.216,1.062,0.594,1.44
		c0.378,0.379,0.905,0.602,1.445,0.602c0.533,0,1.06-0.223,1.438-0.602c0.378-0.379,0.601-0.906,0.601-1.44
		c0-0.541-0.223-1.069-0.601-1.447C12.936,107.991,11.572,107.991,10.809,108.748z"/>
	<path class="st1" d="M25.061,94.474c-0.796,0.798-0.796,2.096,0,2.894c0.399,0.399,0.918,0.595,1.438,0.595
		c0.527,0,1.046-0.196,1.445-0.595c0.797-0.798,0.797-2.096,0-2.894C27.147,93.682,25.858,93.682,25.061,94.474z"/>
	<path class="st2" d="M17.938,101.615c-0.797,0.798-0.797,2.089,0,2.887c0.398,0.399,0.918,0.595,1.438,0.595
		c0.52,0,1.047-0.196,1.445-0.595c0.796-0.798,0.796-2.089,0-2.887C20.024,100.816,18.735,100.816,17.938,101.615z"/>
	<path class="st2" d="M32.184,87.339c-0.378,0.379-0.594,0.906-0.594,1.447c0,0.534,0.216,1.062,0.594,1.441
		c0.378,0.378,0.905,0.602,1.445,0.602c0.533,0,1.06-0.223,1.438-0.602c0.385-0.379,0.601-0.906,0.601-1.441
		c0-0.541-0.216-1.068-0.601-1.447C34.311,86.582,32.947,86.582,32.184,87.339z"/>
	<path class="st1" d="M17.938,73.065c-0.797,0.798-0.797,2.096,0,2.887c0.392,0.399,0.918,0.602,1.438,0.602
		c0.52,0,1.047-0.203,1.445-0.602c0.796-0.791,0.796-2.089,0-2.887C20.024,72.273,18.728,72.273,17.938,73.065z"/>
	<path class="st1" d="M25.061,80.205c-0.796,0.798-0.796,2.089,0,2.887c0.399,0.399,0.918,0.595,1.438,0.595
		c0.527,0,1.046-0.196,1.445-0.595c0.797-0.798,0.797-2.09,0-2.887C27.147,79.408,25.858,79.408,25.061,80.205z"/>
	<path class="st2" d="M10.809,65.931c-0.378,0.379-0.594,0.906-0.594,1.447c0,0.534,0.216,1.062,0.594,1.44
		c0.378,0.378,0.905,0.602,1.445,0.602c0.533,0,1.06-0.223,1.438-0.602c0.378-0.379,0.601-0.906,0.601-1.44
		c0-0.541-0.223-1.068-0.601-1.447C12.936,65.173,11.572,65.173,10.809,65.931z"/>
	<path class="st1" d="M17.938,58.797c-0.797,0.798-0.797,2.089,0,2.888c0.398,0.399,0.918,0.595,1.438,0.595
		c0.52,0,1.047-0.196,1.445-0.595c0.796-0.798,0.796-2.09,0-2.888C20.024,57.999,18.735,57.999,17.938,58.797z"/>
	<path class="st2" d="M25.061,51.656c-0.796,0.798-0.796,2.089,0,2.887c0.399,0.399,0.918,0.602,1.438,0.602
		c0.527,0,1.046-0.203,1.445-0.602c0.797-0.798,0.797-2.089,0-2.887C27.147,50.858,25.858,50.858,25.061,51.656z"/>
	<path class="st3" d="M32.184,44.522c-0.378,0.379-0.594,0.906-0.594,1.447c0,0.534,0.216,1.062,0.594,1.44
		c0.378,0.379,0.905,0.602,1.445,0.602c0.533,0,1.06-0.223,1.438-0.602c0.385-0.379,0.601-0.906,0.601-1.44
		c0-0.541-0.216-1.068-0.601-1.447C34.311,43.758,32.947,43.765,32.184,44.522z"/>
	<path class="st2" d="M60.688,115.882c-0.796,0.798-0.796,2.097,0,2.894c0.399,0.399,0.918,0.595,1.438,0.595
		c0.52,0,1.047-0.196,1.445-0.595c0.797-0.798,0.797-2.096,0-2.894C62.775,115.091,61.485,115.091,60.688,115.882z"/>
	<path class="st1" d="M67.811,123.023c-0.797,0.798-0.797,2.089,0,2.887c0.398,0.399,0.918,0.595,1.445,0.595
		c0.52,0,1.04-0.196,1.438-0.595c0.796-0.798,0.796-2.089,0-2.887C69.897,122.225,68.608,122.225,67.811,123.023z"/>
	<path class="st1" d="M53.559,108.748c-0.378,0.379-0.594,0.906-0.594,1.447c0,0.128,0.014,0.264,0.041,0.399
		c0.027,0.128,0.061,0.257,0.115,0.379c0.048,0.122,0.115,0.244,0.189,0.352c0.074,0.115,0.155,0.216,0.25,0.311
		c0.378,0.385,0.905,0.602,1.445,0.602c0.135,0,0.263-0.014,0.398-0.041c0.129-0.027,0.257-0.068,0.378-0.115
		c0.128-0.054,0.243-0.115,0.351-0.189c0.115-0.075,0.216-0.162,0.311-0.257c0.095-0.095,0.182-0.196,0.257-0.311
		c0.074-0.108,0.135-0.23,0.189-0.352c0.047-0.121,0.088-0.25,0.115-0.379c0.027-0.135,0.041-0.271,0.041-0.399
		c0-0.541-0.216-1.069-0.601-1.447C55.686,107.991,54.322,107.991,53.559,108.748z"/>
	<path class="st1" d="M60.688,101.615c-0.796,0.798-0.796,2.089,0,2.887c0.399,0.399,0.918,0.595,1.438,0.595
		c0.527,0,1.047-0.196,1.445-0.595c0.797-0.798,0.797-2.089,0-2.887C62.775,100.816,61.485,100.816,60.688,101.615z"/>
	<path class="st2" d="M67.811,94.474c-0.797,0.798-0.797,2.096,0,2.894c0.398,0.399,0.918,0.595,1.445,0.595
		c0.52,0,1.04-0.196,1.438-0.595c0.796-0.798,0.796-2.096,0-2.894C69.897,93.682,68.608,93.682,67.811,94.474z"/>
	<path class="st3" d="M77.513,87.089c-0.115-0.074-0.229-0.142-0.358-0.189c-0.122-0.054-0.25-0.095-0.378-0.115
		c-0.263-0.054-0.533-0.054-0.797,0c-0.128,0.02-0.256,0.061-0.385,0.115c-0.122,0.047-0.236,0.115-0.351,0.189
		c-0.108,0.075-0.216,0.156-0.311,0.25c-0.378,0.379-0.594,0.906-0.594,1.447c0,0.128,0.014,0.264,0.041,0.399
		c0.027,0.128,0.067,0.257,0.115,0.378c0.054,0.122,0.115,0.244,0.189,0.352c0.075,0.115,0.155,0.216,0.25,0.311
		c0.095,0.094,0.202,0.182,0.311,0.257c0.115,0.074,0.229,0.135,0.351,0.189c0.128,0.047,0.257,0.088,0.385,0.115
		c0.129,0.027,0.263,0.041,0.399,0.041c0.533,0,1.06-0.223,1.438-0.602c0.095-0.095,0.182-0.196,0.256-0.311
		c0.075-0.108,0.135-0.23,0.189-0.352c0.047-0.121,0.088-0.25,0.115-0.378c0.027-0.135,0.041-0.271,0.041-0.399
		c0-0.541-0.216-1.068-0.594-1.447C77.729,87.245,77.621,87.164,77.513,87.089z"/>
	<path class="st1" d="M10.411,25.838c0.074,0.108,0.162,0.216,0.257,0.304c0.378,0.386,0.905,0.602,1.438,0.602
		c0.54,0,1.067-0.216,1.445-0.602c0.095-0.088,0.175-0.196,0.25-0.304c0.074-0.115,0.142-0.23,0.189-0.358
		c0.054-0.122,0.095-0.25,0.115-0.379c0.027-0.135,0.04-0.27,0.04-0.399c0-0.541-0.216-1.069-0.594-1.447
		c-0.756-0.757-2.127-0.757-2.883,0c-0.378,0.378-0.601,0.906-0.601,1.447c0,0.129,0.014,0.264,0.041,0.399
		c0.027,0.129,0.068,0.257,0.115,0.379C10.276,25.608,10.336,25.723,10.411,25.838z"/>
	<path class="st2" d="M19.235,19.603c0.52,0,1.04-0.196,1.438-0.595c0.797-0.798,0.797-2.089,0-2.887
		c-0.796-0.798-2.086-0.798-2.883,0c-0.796,0.798-0.796,2.09,0,2.887C18.188,19.407,18.708,19.603,19.235,19.603z"/>
	<path class="st1" d="M26.357,12.469c0.52,0,1.047-0.196,1.445-0.595c0.797-0.798,0.797-2.089,0-2.888
		c-0.796-0.798-2.093-0.798-2.883,0c-0.796,0.798-0.796,2.09,0,2.888C25.318,12.273,25.837,12.469,26.357,12.469z"/>
	<path class="st1" d="M32.353,4.99c0.108,0.074,0.229,0.135,0.351,0.189c0.121,0.048,0.25,0.088,0.378,0.115
		c0.135,0.027,0.27,0.041,0.398,0.041c0.54,0,1.067-0.223,1.445-0.602c0.378-0.379,0.594-0.906,0.594-1.441
		c0-0.135-0.014-0.27-0.034-0.399c-0.027-0.135-0.067-0.263-0.121-0.385c-0.047-0.122-0.115-0.237-0.182-0.352
		c-0.074-0.108-0.162-0.217-0.256-0.311c-0.473-0.473-1.175-0.69-1.843-0.555c-0.129,0.027-0.257,0.061-0.378,0.115
		c-0.122,0.048-0.243,0.115-0.351,0.19c-0.115,0.075-0.216,0.156-0.311,0.25c-0.095,0.094-0.182,0.203-0.257,0.311
		c-0.074,0.115-0.135,0.23-0.182,0.352c-0.054,0.122-0.094,0.25-0.121,0.385c-0.027,0.129-0.041,0.264-0.041,0.399
		c0,0.534,0.223,1.062,0.601,1.441C32.137,4.828,32.238,4.916,32.353,4.99z"/>
	<path class="st3" d="M99.61,24.303c-0.027-0.128-0.067-0.257-0.115-0.386c-0.054-0.122-0.115-0.236-0.189-0.351
		c-0.074-0.108-0.162-0.217-0.257-0.311c-0.756-0.757-2.12-0.757-2.883,0c-0.095,0.095-0.176,0.203-0.25,0.311
		c-0.074,0.115-0.142,0.23-0.189,0.351c-0.054,0.129-0.094,0.257-0.115,0.386c-0.027,0.128-0.04,0.264-0.04,0.399
		c0,0.534,0.216,1.062,0.594,1.44c0.378,0.386,0.905,0.602,1.445,0.602c0.533,0,1.06-0.216,1.438-0.602
		c0.378-0.378,0.601-0.906,0.601-1.44C99.651,24.566,99.637,24.431,99.61,24.303z"/>
	<path class="st2" d="M113.302,8.98c-0.797-0.791-2.086-0.791-2.883,0c-0.797,0.798-0.797,2.096,0,2.894
		c0.398,0.399,0.918,0.595,1.438,0.595c0.527,0,1.047-0.196,1.445-0.595C114.099,11.076,114.099,9.778,113.302,8.98z"/>
	<path class="st1" d="M106.173,16.121c-0.79-0.798-2.086-0.798-2.883,0c-0.797,0.798-0.797,2.09,0,2.887
		c0.398,0.399,0.925,0.602,1.445,0.602c0.52,0,1.046-0.203,1.438-0.602C106.969,18.211,106.969,16.919,106.173,16.121z"/>
	<path class="st1" d="M120.425,1.846c-0.756-0.757-2.12-0.757-2.883,0c-0.378,0.378-0.594,0.906-0.594,1.447
		c0,0.534,0.216,1.062,0.594,1.441c0.378,0.379,0.905,0.602,1.445,0.602c0.533,0,1.06-0.223,1.438-0.602
		c0.378-0.379,0.601-0.906,0.601-1.441C121.026,2.752,120.81,2.224,120.425,1.846z"/>
	<path class="st2" d="M54.862,69.562c0.533,0,1.06-0.216,1.438-0.595c0.378-0.385,0.601-0.913,0.601-1.447
		c0-0.534-0.223-1.062-0.601-1.447c-0.756-0.757-2.127-0.757-2.883,0c-0.378,0.385-0.601,0.913-0.601,1.447
		c0,0.534,0.222,1.062,0.601,1.447C53.795,69.345,54.322,69.562,54.862,69.562z"/>
	<path class="st1" d="M69.107,55.287c0.527,0,1.046-0.196,1.445-0.595c0.797-0.798,0.797-2.09,0-2.887
		c-0.797-0.798-2.086-0.798-2.883,0c-0.797,0.798-0.797,2.089,0,2.887C68.068,55.091,68.588,55.287,69.107,55.287z"/>
	<path class="st1" d="M61.985,62.428c0.52,0,1.04-0.203,1.438-0.602c0.796-0.798,0.796-2.09,0-2.888
		c-0.79-0.798-2.086-0.798-2.883,0c-0.797,0.798-0.797,2.09,0,2.888C60.938,62.225,61.465,62.428,61.985,62.428z"/>
	<path class="st2" d="M75.103,47.808c0.108,0.075,0.229,0.135,0.351,0.19c0.122,0.047,0.25,0.088,0.385,0.115
		c0.128,0.027,0.263,0.041,0.398,0.041c0.533,0,1.06-0.216,1.438-0.602c0.378-0.379,0.601-0.9,0.601-1.44
		c0-0.135-0.014-0.271-0.041-0.399c-0.027-0.129-0.067-0.257-0.115-0.386c-0.054-0.122-0.115-0.236-0.189-0.352
		c-0.074-0.108-0.162-0.216-0.257-0.311c-0.095-0.095-0.196-0.176-0.31-0.25c-0.108-0.075-0.229-0.135-0.351-0.19
		c-0.122-0.048-0.25-0.088-0.378-0.115c-0.263-0.054-0.533-0.054-0.797,0c-0.135,0.027-0.263,0.067-0.385,0.115
		c-0.122,0.054-0.243,0.115-0.351,0.19c-0.115,0.074-0.216,0.155-0.311,0.25c-0.095,0.095-0.182,0.203-0.256,0.311
		c-0.068,0.115-0.135,0.23-0.182,0.352c-0.054,0.129-0.095,0.257-0.122,0.386c-0.02,0.128-0.034,0.263-0.034,0.399
		c0,0.534,0.216,1.062,0.594,1.44C74.887,47.646,74.988,47.734,75.103,47.808z"/>
	<path class="st1" d="M67.669,37.53c-0.797,0.798-0.797,2.089,0,2.887c0.398,0.399,0.918,0.602,1.438,0.602
		c0.527,0,1.046-0.203,1.445-0.602c0.797-0.798,0.797-2.089,0-2.887C69.756,36.732,68.466,36.732,67.669,37.53z"/>
	<path class="st2" d="M60.54,30.396c-0.797,0.798-0.797,2.089,0,2.888c0.398,0.399,0.925,0.595,1.445,0.595
		c0.52,0,1.04-0.196,1.438-0.595c0.796-0.798,0.796-2.09,0-2.888C62.633,29.598,61.336,29.598,60.54,30.396z"/>
	<path class="st1" d="M53.417,23.255c-0.378,0.385-0.601,0.906-0.601,1.447c0,0.534,0.222,1.062,0.601,1.44
		c0.378,0.386,0.905,0.602,1.445,0.602c0.533,0,1.06-0.216,1.438-0.602c0.378-0.378,0.601-0.906,0.601-1.44
		c0-0.541-0.223-1.062-0.601-1.447C55.537,22.498,54.173,22.498,53.417,23.255z"/>
	<path class="st2" d="M70.552,8.987c-0.797-0.798-2.086-0.798-2.883,0c-0.797,0.791-0.797,2.09,0,2.888
		c0.398,0.399,0.918,0.595,1.438,0.595c0.527,0,1.046-0.196,1.445-0.595C71.349,11.076,71.349,9.778,70.552,8.987z"/>
	<path class="st1" d="M63.423,16.121c-0.79-0.798-2.086-0.798-2.883,0c-0.797,0.798-0.797,2.09,0,2.887
		c0.398,0.399,0.925,0.595,1.445,0.595c0.52,0,1.04-0.196,1.438-0.595C64.219,18.211,64.219,16.919,63.423,16.121z"/>
	<path class="st1" d="M77.931,2.157c-0.074-0.108-0.162-0.217-0.257-0.311c-0.095-0.095-0.196-0.176-0.31-0.25
		c-0.108-0.074-0.229-0.142-0.351-0.19c-0.122-0.054-0.25-0.088-0.378-0.115c-0.263-0.054-0.533-0.054-0.797,0
		c-0.135,0.027-0.263,0.061-0.385,0.115c-0.122,0.048-0.243,0.115-0.351,0.19c-0.115,0.075-0.216,0.156-0.311,0.25
		c-0.095,0.094-0.182,0.203-0.256,0.311c-0.068,0.108-0.135,0.23-0.182,0.352c-0.054,0.122-0.095,0.25-0.122,0.385
		c-0.02,0.129-0.034,0.264-0.034,0.399c0,0.129,0.014,0.264,0.034,0.399c0.027,0.128,0.068,0.257,0.122,0.379
		c0.047,0.128,0.115,0.243,0.182,0.351c0.081,0.115,0.162,0.217,0.256,0.311c0.095,0.095,0.196,0.183,0.311,0.257
		c0.108,0.074,0.229,0.135,0.351,0.189c0.122,0.048,0.25,0.088,0.385,0.115c0.128,0.027,0.263,0.041,0.398,0.041
		c0.533,0,1.06-0.217,1.438-0.602c0.095-0.095,0.182-0.196,0.257-0.311c0.074-0.108,0.135-0.223,0.189-0.351
		c0.047-0.122,0.088-0.25,0.115-0.379c0.027-0.135,0.041-0.27,0.041-0.399c0-0.135-0.014-0.27-0.041-0.399
		c-0.027-0.135-0.067-0.263-0.115-0.385C78.066,2.387,78.006,2.265,77.931,2.157z"/>
	<path class="st1" d="M97.612,112.38c0.533,0,1.06-0.217,1.438-0.595c0.378-0.386,0.601-0.906,0.601-1.447
		c0-0.534-0.223-1.062-0.601-1.441c-0.756-0.764-2.127-0.764-2.883,0c-0.095,0.088-0.176,0.196-0.25,0.304
		c-0.074,0.115-0.142,0.23-0.189,0.359c-0.054,0.122-0.094,0.25-0.115,0.378c-0.027,0.135-0.04,0.264-0.04,0.399
		c0,0.541,0.216,1.068,0.594,1.447C96.545,112.163,97.072,112.38,97.612,112.38z"/>
	<path class="st1" d="M104.735,105.246c0.52,0,1.046-0.203,1.438-0.602c0.797-0.798,0.797-2.09,0-2.887
		c-0.79-0.798-2.086-0.798-2.883,0c-0.797,0.798-0.797,2.089,0,2.887C103.688,105.043,104.215,105.246,104.735,105.246z"/>
	<path class="st2" d="M111.857,98.105c0.527,0,1.047-0.196,1.445-0.595c0.797-0.798,0.797-2.089,0-2.887
		c-0.797-0.798-2.086-0.798-2.883,0c-0.797,0.798-0.797,2.089,0,2.887C110.817,97.909,111.337,98.105,111.857,98.105z"/>
	<path class="st1" d="M118.987,90.971c0.533,0,1.06-0.216,1.438-0.595c0.378-0.386,0.601-0.906,0.601-1.447
		c0-0.135-0.013-0.264-0.04-0.399c-0.027-0.128-0.068-0.257-0.115-0.379c-0.054-0.128-0.115-0.243-0.189-0.359
		c-0.075-0.108-0.162-0.216-0.257-0.304c-0.094-0.095-0.196-0.183-0.311-0.257c-0.108-0.074-0.229-0.135-0.351-0.189
		c-0.121-0.048-0.25-0.088-0.378-0.115c-0.662-0.135-1.37,0.081-1.843,0.561c-0.094,0.088-0.175,0.196-0.25,0.304
		c-0.075,0.115-0.142,0.23-0.189,0.359c-0.054,0.121-0.095,0.25-0.115,0.379c-0.027,0.135-0.041,0.264-0.041,0.399
		c0,0.541,0.216,1.062,0.594,1.447C117.92,90.755,118.447,90.971,118.987,90.971z"/>
	<path class="st1" d="M110.419,80.348c-0.797,0.798-0.797,2.089,0,2.887c0.398,0.399,0.918,0.602,1.438,0.602
		c0.527,0,1.047-0.203,1.445-0.602c0.797-0.798,0.797-2.089,0-2.887C112.505,79.55,111.216,79.55,110.419,80.348z"/>
	<path class="st2" d="M103.29,73.214c-0.797,0.798-0.797,2.089,0,2.887c0.398,0.399,0.925,0.595,1.445,0.595
		c0.52,0,1.046-0.196,1.438-0.595c0.797-0.798,0.797-2.089,0-2.887C105.383,72.415,104.086,72.415,103.29,73.214z"/>
	<path class="st1" d="M99.307,66.384c-0.074-0.108-0.162-0.216-0.257-0.311c-0.756-0.757-2.12-0.757-2.883,0
		c-0.095,0.095-0.176,0.203-0.25,0.311c-0.074,0.115-0.142,0.23-0.189,0.352c-0.054,0.128-0.094,0.257-0.115,0.385
		c-0.027,0.129-0.04,0.264-0.04,0.399c0,0.135,0.014,0.27,0.04,0.399c0.02,0.128,0.061,0.257,0.115,0.379
		c0.048,0.128,0.115,0.243,0.189,0.358c0.074,0.108,0.155,0.217,0.25,0.311c0.378,0.379,0.905,0.595,1.445,0.595
		c0.533,0,1.06-0.216,1.438-0.595c0.378-0.385,0.601-0.913,0.601-1.447c0-0.135-0.013-0.271-0.04-0.399
		c-0.027-0.128-0.067-0.257-0.115-0.385C99.441,66.614,99.381,66.499,99.307,66.384z"/>
	<path class="st1" d="M113.302,51.805c-0.797-0.798-2.086-0.798-2.883,0c-0.797,0.798-0.797,2.089,0,2.887
		c0.398,0.399,0.918,0.595,1.438,0.595c0.527,0,1.047-0.196,1.445-0.595C114.099,53.894,114.099,52.602,113.302,51.805z"/>
	<path class="st2" d="M106.173,58.938c-0.79-0.798-2.086-0.798-2.883,0c-0.797,0.798-0.797,2.09,0,2.888
		c0.398,0.399,0.925,0.602,1.445,0.602c0.52,0,1.046-0.203,1.438-0.602C106.969,61.028,106.969,59.736,106.173,58.938z"/>
	<path class="st1" d="M120.114,44.414c-0.108-0.075-0.229-0.135-0.351-0.19c-0.121-0.054-0.25-0.088-0.378-0.115
		c-0.662-0.135-1.37,0.081-1.843,0.554c-0.378,0.385-0.594,0.906-0.594,1.447c0,0.534,0.216,1.062,0.594,1.44
		c0.378,0.386,0.905,0.602,1.445,0.602c0.533,0,1.06-0.216,1.438-0.602c0.378-0.379,0.601-0.906,0.601-1.44
		c0-0.541-0.216-1.062-0.601-1.447C120.33,44.569,120.229,44.488,120.114,44.414z"/>
</g>
</svg>
